<mxfile host="65bd71144e">
    <diagram name="Page-1" id="aHE4Gbo_uZ3ZGk-U8cAs">
        <mxGraphModel dx="706" dy="500" grid="1" gridSize="10" guides="1" tooltips="1" connect="1" arrows="1" fold="1" page="1" pageScale="1" pageWidth="700" pageHeight="1000" math="0" shadow="0">
            <root>
                <mxCell id="0"/>
                <mxCell id="1" parent="0"/>
                <mxCell id="Qq1zT4ovdKr5q-RKUlES-1" value="&lt;font style=&quot;font-size: 16px;&quot;&gt;Presenter&lt;/font&gt;" style="rounded=0;whiteSpace=wrap;html=1;" parent="1" vertex="1">
                    <mxGeometry x="600" y="80" width="200" height="80" as="geometry"/>
                </mxCell>
                <mxCell id="Qq1zT4ovdKr5q-RKUlES-2" value="&lt;font style=&quot;font-size: 16px;&quot;&gt;View&lt;/font&gt;" style="rounded=0;whiteSpace=wrap;html=1;" parent="1" vertex="1">
                    <mxGeometry x="400" y="250" width="200" height="80" as="geometry"/>
                </mxCell>
                <mxCell id="Qq1zT4ovdKr5q-RKUlES-3" value="&lt;font style=&quot;font-size: 16px;&quot;&gt;Model&lt;/font&gt;" style="rounded=0;whiteSpace=wrap;html=1;" parent="1" vertex="1">
                    <mxGeometry x="800" y="250" width="200" height="80" as="geometry"/>
                </mxCell>
                <mxCell id="Qq1zT4ovdKr5q-RKUlES-4" value="update&lt;br&gt;model" style="html=1;verticalAlign=bottom;endArrow=block;rounded=0;fontSize=16;entryX=0.25;entryY=0;entryDx=0;entryDy=0;" parent="1" target="Qq1zT4ovdKr5q-RKUlES-3" edge="1">
                    <mxGeometry x="0.5" width="80" relative="1" as="geometry">
                        <mxPoint x="800" y="140" as="sourcePoint"/>
                        <mxPoint x="880" y="140" as="targetPoint"/>
                        <Array as="points">
                            <mxPoint x="850" y="140"/>
                        </Array>
                        <mxPoint as="offset"/>
                    </mxGeometry>
                </mxCell>
                <mxCell id="Qq1zT4ovdKr5q-RKUlES-5" value="model&lt;br&gt;changed" style="html=1;verticalAlign=bottom;endArrow=block;rounded=0;fontSize=16;entryX=1;entryY=0.25;entryDx=0;entryDy=0;exitX=0.804;exitY=-0.021;exitDx=0;exitDy=0;exitPerimeter=0;" parent="1" source="Qq1zT4ovdKr5q-RKUlES-3" target="Qq1zT4ovdKr5q-RKUlES-1" edge="1">
                    <mxGeometry x="-0.4919" width="80" relative="1" as="geometry">
                        <mxPoint x="960" y="240" as="sourcePoint"/>
                        <mxPoint x="1000" y="130" as="targetPoint"/>
                        <Array as="points">
                            <mxPoint x="960" y="100"/>
                        </Array>
                        <mxPoint as="offset"/>
                    </mxGeometry>
                </mxCell>
                <mxCell id="Qq1zT4ovdKr5q-RKUlES-6" value="user&lt;br&gt;actions" style="html=1;verticalAlign=bottom;endArrow=block;rounded=0;fontSize=16;entryX=0;entryY=0.25;entryDx=0;entryDy=0;exitX=0.196;exitY=-0.01;exitDx=0;exitDy=0;exitPerimeter=0;" parent="1" source="Qq1zT4ovdKr5q-RKUlES-2" target="Qq1zT4ovdKr5q-RKUlES-1" edge="1">
                    <mxGeometry x="-0.4877" width="80" relative="1" as="geometry">
                        <mxPoint x="460" y="220" as="sourcePoint"/>
                        <mxPoint x="540" y="220" as="targetPoint"/>
                        <Array as="points">
                            <mxPoint x="440" y="100"/>
                        </Array>
                        <mxPoint as="offset"/>
                    </mxGeometry>
                </mxCell>
                <mxCell id="Qq1zT4ovdKr5q-RKUlES-7" value="update UI" style="html=1;verticalAlign=bottom;endArrow=block;rounded=0;fontSize=16;exitX=0;exitY=0.75;exitDx=0;exitDy=0;entryX=0.75;entryY=0;entryDx=0;entryDy=0;" parent="1" source="Qq1zT4ovdKr5q-RKUlES-1" target="Qq1zT4ovdKr5q-RKUlES-2" edge="1">
                    <mxGeometry x="0.25" width="80" relative="1" as="geometry">
                        <mxPoint x="580" y="200" as="sourcePoint"/>
                        <mxPoint x="660" y="200" as="targetPoint"/>
                        <Array as="points">
                            <mxPoint x="550" y="140"/>
                        </Array>
                        <mxPoint as="offset"/>
                    </mxGeometry>
                </mxCell>
            </root>
        </mxGraphModel>
    </diagram>
</mxfile>